G04 Layer_Color=2752767*
%FSLAX42Y42*%
%MOMM*%
G71*
G01*
G75*
%ADD13C,0.25*%
%ADD52C,0.05*%
%ADD53C,0.07*%
D13*
X3000Y5952D02*
X9486D01*
X3000Y3000D02*
X9498D01*
Y2999D02*
Y5952D01*
D52*
X4124Y5365D02*
Y5405D01*
X4165D01*
Y5365D01*
X4124D01*
X5394D02*
Y5405D01*
X5435D01*
Y5365D01*
X5394D01*
X4378D02*
Y5405D01*
X4419D01*
Y5365D01*
X4378D01*
X5648D02*
Y5405D01*
X5689D01*
Y5365D01*
X5648D01*
X4632D02*
Y5405D01*
X4673D01*
Y5365D01*
X4632D01*
X5902D02*
Y5405D01*
X5943D01*
Y5365D01*
X5902D01*
X4886D02*
Y5405D01*
X4927D01*
Y5365D01*
X4886D01*
X6156D02*
Y5405D01*
X6197D01*
Y5365D01*
X6156D01*
X5140D02*
Y5405D01*
X5181D01*
Y5365D01*
X5140D01*
X6410D02*
Y5405D01*
X6451D01*
Y5365D01*
X6410D01*
X6664D02*
Y5405D01*
X6705D01*
Y5365D01*
X6664D01*
Y5619D02*
Y5659D01*
X6705D01*
Y5619D01*
X6664D01*
X6410D02*
Y5659D01*
X6451D01*
Y5619D01*
X6410D01*
X5140D02*
Y5659D01*
X5181D01*
Y5619D01*
X5140D01*
X6156D02*
Y5659D01*
X6197D01*
Y5619D01*
X6156D01*
X4886D02*
Y5659D01*
X4927D01*
Y5619D01*
X4886D01*
X5902D02*
Y5659D01*
X5943D01*
Y5619D01*
X5902D01*
X4632D02*
Y5659D01*
X4673D01*
Y5619D01*
X4632D01*
X5648D02*
Y5659D01*
X5689D01*
Y5619D01*
X5648D01*
X4378D02*
Y5659D01*
X4419D01*
Y5619D01*
X4378D01*
X5394D02*
Y5659D01*
X5435D01*
Y5619D01*
X5394D01*
X4124D02*
Y5659D01*
X4165D01*
Y5619D01*
X4124D01*
X6489Y4947D02*
Y4988D01*
X6529D01*
Y4947D01*
X6489D01*
X6235D02*
Y4988D01*
X6275D01*
Y4947D01*
X6235D01*
X8743Y3472D02*
Y3513D01*
X8783D01*
Y3472D01*
X8743D01*
X8489D02*
Y3513D01*
X8529D01*
Y3472D01*
X8489D01*
X8235D02*
Y3513D01*
X8275D01*
Y3472D01*
X8235D01*
X7981D02*
Y3513D01*
X8021D01*
Y3472D01*
X7981D01*
X7727D02*
Y3513D01*
X7767D01*
Y3472D01*
X7727D01*
X7473D02*
Y3513D01*
X7513D01*
Y3472D01*
X7473D01*
X7219D02*
Y3513D01*
X7259D01*
Y3472D01*
X7219D01*
X6965D02*
Y3513D01*
X7005D01*
Y3472D01*
X6965D01*
X6711D02*
Y3513D01*
X6751D01*
Y3472D01*
X6711D01*
X5949D02*
Y3513D01*
X5989D01*
Y3472D01*
X5949D01*
X5695D02*
Y3513D01*
X5735D01*
Y3472D01*
X5695D01*
X5187D02*
Y3513D01*
X5227D01*
Y3472D01*
X5187D01*
X5441D02*
Y3513D01*
X5481D01*
Y3472D01*
X5441D01*
X4425D02*
Y3513D01*
X4465D01*
Y3472D01*
X4425D01*
X4679D02*
Y3513D01*
X4719D01*
Y3472D01*
X4679D01*
X4933D02*
Y3513D01*
X4973D01*
Y3472D01*
X4933D01*
X5949D02*
Y3513D01*
X5989D01*
Y3472D01*
X5949D01*
X6203D02*
Y3513D01*
X6243D01*
Y3472D01*
X6203D01*
X6457D02*
Y3513D01*
X6497D01*
Y3472D01*
X6457D01*
X7753Y4842D02*
X7732Y4883D01*
X7773D01*
X7753Y4842D01*
X3720Y3212D02*
X3700Y3253D01*
X3740D01*
X3720Y3212D01*
X5875Y4620D02*
X5855Y4661D01*
X5896D01*
X5875Y4620D01*
X5960Y4707D02*
X5940Y4748D01*
X5980D01*
X5960Y4707D01*
X5565Y4342D02*
X5545Y4383D01*
X5585D01*
X5565Y4342D01*
X4830Y4850D02*
X4810Y4890D01*
X4850D01*
X4830Y4850D01*
X4597Y4335D02*
X4577Y4375D01*
X4618D01*
X4597Y4335D01*
X4600Y4615D02*
X4580Y4655D01*
X4620D01*
X4600Y4615D01*
X7357Y3317D02*
X7337Y3358D01*
X7378D01*
X7357Y3317D01*
X7331Y3911D02*
X7311Y3951D01*
X7351D01*
X7331Y3911D01*
X8251Y4871D02*
X8231Y4911D01*
X8271D01*
X8251Y4871D01*
X7370Y4880D02*
X7350Y4920D01*
X7390D01*
X7370Y4880D01*
X7874Y4856D02*
X7854Y4896D01*
X7894D01*
X7874Y4856D01*
X8410Y4372D02*
X8390Y4413D01*
X8430D01*
X8410Y4372D01*
X6112Y4527D02*
X6092Y4568D01*
X6133D01*
X6112Y4527D01*
D53*
X3354Y4799D02*
G03*
X3354Y4799I-20J0D01*
G01*
Y5308D02*
G03*
X3354Y5308I-20J0D01*
G01*
Y5053D02*
G03*
X3354Y5053I-20J0D01*
G01*
X3608Y4799D02*
G03*
X3608Y4799I-20J0D01*
G01*
Y5308D02*
G03*
X3608Y5308I-20J0D01*
G01*
Y5053D02*
G03*
X3608Y5053I-20J0D01*
G01*
M02*
