G04 Layer_Color=128*
%FSLAX42Y42*%
%MOMM*%
G71*
G01*
G75*
%ADD10R,1.40X1.02*%
%ADD13C,0.25*%
%ADD21R,0.60X0.60*%
G04:AMPARAMS|DCode=22|XSize=0.6mm|YSize=0.6mm|CornerRadius=0.15mm|HoleSize=0mm|Usage=FLASHONLY|Rotation=180.000|XOffset=0mm|YOffset=0mm|HoleType=Round|Shape=RoundedRectangle|*
%AMROUNDEDRECTD22*
21,1,0.60,0.30,0,0,180.0*
21,1,0.30,0.60,0,0,180.0*
1,1,0.30,-0.15,0.15*
1,1,0.30,0.15,0.15*
1,1,0.30,0.15,-0.15*
1,1,0.30,-0.15,-0.15*
%
%ADD22ROUNDEDRECTD22*%
%ADD23R,1.02X1.40*%
%ADD24R,0.70X0.80*%
%ADD25O,1.52X2.16*%
%ADD26R,1.40X2.16*%
%ADD27R,0.60X2.00*%
%ADD28O,0.60X2.00*%
%ADD29R,1.10X0.40*%
D10*
X3295Y4024D02*
D03*
Y4215D02*
D03*
D13*
X3000Y5952D02*
X9486D01*
X3000Y3000D02*
X9498D01*
Y2999D02*
Y5952D01*
D21*
X5838Y4967D02*
D03*
D22*
X6083D02*
D03*
D23*
X3776Y4488D02*
D03*
X3585D02*
D03*
X8890Y4191D02*
D03*
X9081D02*
D03*
Y4508D02*
D03*
X8890D02*
D03*
D24*
X3680Y4017D02*
D03*
X3583Y4220D02*
D03*
X3778D02*
D03*
D25*
X8763Y4890D02*
D03*
D26*
X9144D02*
D03*
D27*
X7112Y5144D02*
D03*
D28*
X7239D02*
D03*
X7366D02*
D03*
X7493D02*
D03*
X7620D02*
D03*
X7747D02*
D03*
X7874D02*
D03*
X8001D02*
D03*
X8128D02*
D03*
X8255D02*
D03*
X8382D02*
D03*
X8509D02*
D03*
X7112Y4144D02*
D03*
X7239D02*
D03*
X7366D02*
D03*
X7493D02*
D03*
X7620D02*
D03*
X7747D02*
D03*
X7874D02*
D03*
X8001D02*
D03*
X8128D02*
D03*
X8255D02*
D03*
X8382D02*
D03*
X8509D02*
D03*
D29*
X6347Y4746D02*
D03*
Y4681D02*
D03*
Y4616D02*
D03*
Y4551D02*
D03*
Y4486D02*
D03*
Y4421D02*
D03*
Y4356D02*
D03*
Y4291D02*
D03*
X5717Y4746D02*
D03*
Y4681D02*
D03*
Y4616D02*
D03*
Y4551D02*
D03*
Y4486D02*
D03*
Y4421D02*
D03*
Y4356D02*
D03*
Y4291D02*
D03*
X5014Y4746D02*
D03*
Y4681D02*
D03*
Y4616D02*
D03*
Y4551D02*
D03*
Y4486D02*
D03*
Y4421D02*
D03*
Y4356D02*
D03*
Y4291D02*
D03*
X4384Y4746D02*
D03*
Y4681D02*
D03*
Y4616D02*
D03*
Y4551D02*
D03*
Y4486D02*
D03*
Y4421D02*
D03*
Y4356D02*
D03*
Y4291D02*
D03*
M02*
