G04 Layer_Color=32896*
%FSLAX42Y42*%
%MOMM*%
G71*
G01*
G75*
%ADD13C,0.25*%
%ADD30C,0.20*%
%ADD31C,0.18*%
%ADD49C,0.18*%
%ADD50C,0.25*%
%ADD51C,0.12*%
D13*
X3496Y4381D02*
Y4594D01*
X3864Y4381D02*
Y4594D01*
X3496Y4381D02*
X3864D01*
X3496Y4594D02*
X3864D01*
X3188Y4304D02*
X3402D01*
X3188Y3936D02*
X3402D01*
X3188D02*
Y4304D01*
X3402Y3936D02*
Y4304D01*
X3847Y4025D02*
Y4028D01*
X3753Y4025D02*
X3847D01*
X3510D02*
Y4295D01*
Y4025D02*
X3605D01*
X3847Y4028D02*
Y4295D01*
X3510D02*
X3847D01*
X9169Y4084D02*
Y4298D01*
X8801Y4084D02*
Y4298D01*
X9169D01*
X8801Y4084D02*
X9169D01*
X8801Y4402D02*
Y4615D01*
X9169Y4402D02*
Y4615D01*
X8801Y4402D02*
X9169D01*
X8801Y4615D02*
X9169D01*
X8763Y5055D02*
X9144D01*
X8763Y4724D02*
X9144D01*
X8763D02*
Y4737D01*
X9144Y4724D02*
Y4737D01*
Y5042D02*
Y5055D01*
X8763Y5042D02*
Y5055D01*
X8876Y4727D02*
Y5052D01*
X8898Y4729D02*
Y5047D01*
X8896Y5049D02*
X8898Y5047D01*
X3000Y5952D02*
X9486D01*
X3000Y3000D02*
X9498D01*
Y2999D02*
Y5952D01*
D30*
X6092Y4209D02*
G03*
X5972Y4209I-60J0D01*
G01*
X4759D02*
G03*
X4639Y4209I-60J0D01*
G01*
X6253D02*
Y4811D01*
X5812Y4209D02*
Y4811D01*
X6253D01*
X6092Y4209D02*
X6253D01*
X5812D02*
X5972D01*
X4919D02*
Y4811D01*
X4479Y4209D02*
Y4811D01*
X4919D01*
X4759Y4209D02*
X4919D01*
X4479D02*
X4639D01*
D31*
X6020Y5187D02*
Y5085D01*
X5969D01*
X5952Y5102D01*
Y5170D01*
X5969Y5187D01*
X6020D01*
X5918Y5085D02*
X5885D01*
X5902D01*
Y5187D01*
X5918Y5170D01*
X4010Y4512D02*
X4027Y4529D01*
X4061D01*
X4078Y4512D01*
Y4444D01*
X4061Y4428D01*
X4027D01*
X4010Y4444D01*
X3908Y4428D02*
X3976D01*
X3908Y4495D01*
Y4512D01*
X3925Y4529D01*
X3959D01*
X3976Y4512D01*
X3295Y4437D02*
X3312Y4454D01*
X3346D01*
X3362Y4437D01*
Y4369D01*
X3346Y4353D01*
X3312D01*
X3295Y4369D01*
X3261Y4353D02*
X3227D01*
X3244D01*
Y4454D01*
X3261Y4437D01*
X4090Y4197D02*
Y4112D01*
X4073Y4095D01*
X4039D01*
X4022Y4112D01*
Y4197D01*
X3988Y4180D02*
X3972Y4197D01*
X3938D01*
X3921Y4180D01*
Y4163D01*
X3938Y4146D01*
X3955D01*
X3938D01*
X3921Y4129D01*
Y4112D01*
X3938Y4095D01*
X3972D01*
X3988Y4112D01*
X9377Y4942D02*
X9394Y4959D01*
X9428D01*
X9445Y4942D01*
Y4874D01*
X9428Y4858D01*
X9394D01*
X9377Y4874D01*
X9343Y4942D02*
X9327Y4959D01*
X9293D01*
X9276Y4942D01*
Y4925D01*
X9293Y4908D01*
X9310D01*
X9293D01*
X9276Y4891D01*
Y4874D01*
X9293Y4858D01*
X9327D01*
X9343Y4874D01*
X7000Y4967D02*
Y4882D01*
X6983Y4865D01*
X6949D01*
X6932Y4882D01*
Y4967D01*
X6848Y4865D02*
Y4967D01*
X6898Y4916D01*
X6831D01*
X6103Y4154D02*
Y4069D01*
X6086Y4053D01*
X6052D01*
X6035Y4069D01*
Y4154D01*
X5933Y4053D02*
X6001D01*
X5933Y4120D01*
Y4137D01*
X5950Y4154D01*
X5984D01*
X6001Y4137D01*
X4742Y4167D02*
Y4082D01*
X4726Y4065D01*
X4692D01*
X4675Y4082D01*
Y4167D01*
X4641Y4065D02*
X4607D01*
X4624D01*
Y4167D01*
X4641Y4150D01*
X9407Y4147D02*
Y4249D01*
X9357D01*
X9340Y4232D01*
Y4198D01*
X9357Y4181D01*
X9407D01*
X9374D02*
X9340Y4147D01*
X9306Y4232D02*
X9289Y4249D01*
X9255D01*
X9238Y4232D01*
Y4215D01*
X9255Y4198D01*
X9272D01*
X9255D01*
X9238Y4181D01*
Y4164D01*
X9255Y4147D01*
X9289D01*
X9306Y4164D01*
X9345Y4540D02*
X9362Y4557D01*
X9396D01*
X9412Y4540D01*
Y4472D01*
X9396Y4455D01*
X9362D01*
X9345Y4472D01*
X9260Y4455D02*
Y4557D01*
X9311Y4506D01*
X9243D01*
D49*
X7049Y4612D02*
G03*
X7049Y4675I0J32D01*
G01*
Y4962D01*
Y4325D02*
Y4612D01*
Y4325D02*
X8572D01*
Y4962D01*
X7049D02*
X8572D01*
D50*
X5875Y4286D02*
G03*
X5875Y4286I-12J0D01*
G01*
X4542D02*
G03*
X4542Y4286I-12J0D01*
G01*
D51*
X6067Y4897D02*
Y4917D01*
X5850Y5017D02*
Y5038D01*
X5920Y4900D02*
Y5038D01*
X5930Y4897D02*
Y5035D01*
X5850Y4897D02*
Y4917D01*
Y4897D02*
X6067D01*
Y5017D02*
Y5038D01*
X5853Y5038D02*
X6067Y5038D01*
M02*
