G04 Layer_Physical_Order=1*
G04 Layer_Color=255*
%FSLAX42Y42*%
%MOMM*%
G71*
G01*
G75*
%ADD10R,1.40X1.02*%
%ADD11C,0.30*%
%ADD12C,0.51*%
%ADD13C,0.25*%
G04:AMPARAMS|DCode=14|XSize=1.5mm|YSize=1.5mm|CornerRadius=0.23mm|HoleSize=0mm|Usage=FLASHONLY|Rotation=0.000|XOffset=0mm|YOffset=0mm|HoleType=Round|Shape=RoundedRectangle|*
%AMROUNDEDRECTD14*
21,1,1.50,1.05,0,0,0.0*
21,1,1.05,1.50,0,0,0.0*
1,1,0.45,0.53,-0.53*
1,1,0.45,-0.53,-0.53*
1,1,0.45,-0.53,0.53*
1,1,0.45,0.53,0.53*
%
%ADD14ROUNDEDRECTD14*%
%ADD15C,1.50*%
%ADD16R,1.50X1.50*%
%ADD17C,1.35*%
%ADD18R,1.35X1.35*%
%ADD19C,1.52*%
%ADD20C,0.71*%
D10*
X5682Y4870D02*
D03*
Y5060D02*
D03*
X5420D02*
D03*
Y4870D02*
D03*
X5165Y5060D02*
D03*
Y4870D02*
D03*
X4392Y4869D02*
D03*
Y5060D02*
D03*
X4142Y4869D02*
D03*
Y5060D02*
D03*
D11*
X7290Y3700D02*
X7753Y4162D01*
Y4862D01*
X6509Y4967D02*
Y5187D01*
X6553Y5230D01*
Y5517D01*
X6509Y4967D02*
X6550Y5008D01*
X6431Y5639D02*
X6553Y5517D01*
X6685Y4794D02*
Y5385D01*
X6618Y4728D02*
X6685Y4794D01*
X5960Y4728D02*
X6618D01*
X7175Y5117D02*
X8272D01*
X6698Y4640D02*
X7175Y5117D01*
X5875Y4640D02*
X6698D01*
X5535Y4362D02*
X5565D01*
X5260Y4638D02*
X5535Y4362D01*
X4143Y4870D02*
X5420D01*
X5682Y5060D02*
X5829D01*
X5922Y4967D01*
X6255D01*
X5420Y4870D02*
X5682D01*
X5415Y5066D02*
X5420Y5060D01*
X5415Y5066D02*
Y5385D01*
X4600Y4635D02*
X5258D01*
X5260Y4638D01*
X4142Y4869D02*
X4143Y4870D01*
X4392Y5060D02*
X4399Y5066D01*
X4390Y5057D02*
X4392Y5060D01*
X5160Y5385D02*
X5165Y5381D01*
Y5060D02*
Y5381D01*
X4399Y5066D02*
Y5385D01*
X4142Y5060D02*
X4144Y5062D01*
Y5385D01*
X5290Y4355D02*
X5420Y4225D01*
X4597Y4355D02*
X5290D01*
X5108Y3338D02*
X7357D01*
X4953Y3492D02*
X5108Y3338D01*
X8410Y4392D02*
Y4980D01*
X7230Y3830D02*
X7330Y3930D01*
X5799Y3830D02*
X7230D01*
X5461Y3492D02*
X5799Y3830D01*
X7747Y3492D02*
Y3757D01*
X7980Y3990D01*
Y4980D01*
X7950Y5010D02*
X7980Y4980D01*
X7510Y5010D02*
X7950D01*
X7400Y4900D02*
X7510Y5010D01*
X7370Y4900D02*
X7400D01*
X6910Y3700D02*
X7290D01*
X6731Y3521D02*
X6910Y3700D01*
X6731Y3492D02*
Y3521D01*
X7874Y4128D02*
Y4876D01*
X7239Y3492D02*
X7874Y4128D01*
X8251Y4891D02*
X8255Y4887D01*
Y3492D02*
Y4887D01*
X8272Y5117D02*
X8410Y4980D01*
X5420Y4225D02*
X5790D01*
X6112Y4547D01*
D12*
X3588Y3360D02*
X3715Y3233D01*
X3720D01*
X3588Y3360D02*
Y4799D01*
X3797Y5010D01*
Y5630D01*
X3988Y5820D01*
X4238D01*
X4399Y5659D01*
Y5639D02*
Y5659D01*
D13*
X3000Y5952D02*
X9486D01*
X3000Y3000D02*
X9498D01*
Y2999D02*
Y5952D01*
D14*
X4144Y5385D02*
D03*
D15*
X5415D02*
D03*
X4399D02*
D03*
X5669D02*
D03*
X4653D02*
D03*
X5922D02*
D03*
X4906D02*
D03*
X6176D02*
D03*
X5160D02*
D03*
X6431D02*
D03*
X6685D02*
D03*
Y5639D02*
D03*
X6431D02*
D03*
X5160D02*
D03*
X6176D02*
D03*
X4906D02*
D03*
X5922D02*
D03*
X4653D02*
D03*
X5669D02*
D03*
X4399D02*
D03*
X5415D02*
D03*
X4144D02*
D03*
X6509Y4967D02*
D03*
D16*
X6255D02*
D03*
D17*
X8763Y3492D02*
D03*
X8509D02*
D03*
X8255D02*
D03*
X8001D02*
D03*
X7747D02*
D03*
X7493D02*
D03*
X7239D02*
D03*
X6985D02*
D03*
X6731D02*
D03*
X5969D02*
D03*
X5715D02*
D03*
X5207D02*
D03*
X5461D02*
D03*
X4699D02*
D03*
X4953D02*
D03*
X5969D02*
D03*
X6223D02*
D03*
X6477D02*
D03*
D18*
X4445D02*
D03*
D19*
X3333Y4799D02*
D03*
Y5308D02*
D03*
Y5053D02*
D03*
X3588Y4799D02*
D03*
Y5308D02*
D03*
Y5053D02*
D03*
D20*
X7753Y4862D02*
D03*
X3720Y3233D02*
D03*
X5875Y4640D02*
D03*
X5960Y4728D02*
D03*
X5565Y4362D02*
D03*
X4830Y4870D02*
D03*
X4597Y4355D02*
D03*
X4600Y4635D02*
D03*
X7357Y3338D02*
D03*
X7331Y3931D02*
D03*
X8251Y4891D02*
D03*
X7370Y4900D02*
D03*
X7874Y4876D02*
D03*
X8410Y4392D02*
D03*
X6112Y4547D02*
D03*
M02*
