M48
;Layer_Color=9474304
;FILE_FORMAT=4:2
METRIC,LZ
;TYPE=PLATED
T1F00S00C0.41
T2F00S00C0.90
T3F00S00C0.97
%
T01
X00372Y003233
X007357Y003338
X007331Y003931
X00841Y004392
X008251Y004891
X007874Y004876
X007753Y004862
X00737Y0049
X00596Y004728
X005875Y00464
X006112Y004547
X005565Y004362
X004597Y004355
X0046Y004635
X00483Y00487
T02
X004445Y003492
X004699
X004953
X005207
X005461
X005715
X005969
X006223
X006477
X006731
X006985
X007239
X007493
X007747
X008001
X008255
X008509
X008763
X006509Y004967
X006255
X006176Y005385
X005922
X005669
X005415
X00516
X004906
X004653
X004399
X004144
Y005639
X004399
X004653
X004906
X00516
X005415
X005669
X005922
X006176
X006431
Y005385
X006685
Y005639
T03
X003333Y004799
Y005053
Y005308
X003588
Y005053
Y004799
M30
