G04 Layer_Physical_Order=2*
G04 Layer_Color=16711680*
%FSLAX42Y42*%
%MOMM*%
G71*
G01*
G75*
%ADD10R,1.40X1.02*%
%ADD11C,0.30*%
%ADD12C,0.51*%
%ADD13C,0.25*%
G04:AMPARAMS|DCode=14|XSize=1.5mm|YSize=1.5mm|CornerRadius=0.23mm|HoleSize=0mm|Usage=FLASHONLY|Rotation=0.000|XOffset=0mm|YOffset=0mm|HoleType=Round|Shape=RoundedRectangle|*
%AMROUNDEDRECTD14*
21,1,1.50,1.05,0,0,0.0*
21,1,1.05,1.50,0,0,0.0*
1,1,0.45,0.53,-0.53*
1,1,0.45,-0.53,-0.53*
1,1,0.45,-0.53,0.53*
1,1,0.45,0.53,0.53*
%
%ADD14ROUNDEDRECTD14*%
%ADD15C,1.50*%
%ADD16R,1.50X1.50*%
%ADD17C,1.35*%
%ADD18R,1.35X1.35*%
%ADD19C,1.52*%
%ADD20C,0.71*%
%ADD21R,0.60X0.60*%
G04:AMPARAMS|DCode=22|XSize=0.6mm|YSize=0.6mm|CornerRadius=0.15mm|HoleSize=0mm|Usage=FLASHONLY|Rotation=180.000|XOffset=0mm|YOffset=0mm|HoleType=Round|Shape=RoundedRectangle|*
%AMROUNDEDRECTD22*
21,1,0.60,0.30,0,0,180.0*
21,1,0.30,0.60,0,0,180.0*
1,1,0.30,-0.15,0.15*
1,1,0.30,0.15,0.15*
1,1,0.30,0.15,-0.15*
1,1,0.30,-0.15,-0.15*
%
%ADD22ROUNDEDRECTD22*%
%ADD23R,1.02X1.40*%
%ADD24R,0.70X0.80*%
%ADD25O,1.52X2.16*%
%ADD26R,1.40X2.16*%
%ADD27R,0.60X2.00*%
%ADD28O,0.60X2.00*%
%ADD29R,1.10X0.40*%
D10*
X3295Y4024D02*
D03*
Y4215D02*
D03*
D11*
X8282Y4692D02*
X8382Y4792D01*
X7423Y4692D02*
X8282D01*
X6223Y3492D02*
X7423Y4692D01*
X6355Y3867D02*
X7239Y4751D01*
X5928Y3867D02*
X6355D01*
X5715Y3655D02*
X5928Y3867D01*
X7747Y5144D02*
X7753Y5138D01*
Y4862D02*
Y5138D01*
X5014Y4746D02*
Y4985D01*
X5415Y5385D01*
X5139Y4104D02*
Y4291D01*
X5095Y4060D02*
X5139Y4104D01*
X4010Y4060D02*
X5095D01*
X3955Y4115D02*
X4010Y4060D01*
X3688Y4115D02*
X3955D01*
X3583Y4220D02*
X3688Y4115D01*
X6347Y4195D02*
Y4291D01*
X6130Y3978D02*
X6347Y4195D01*
X3842Y3978D02*
X6130D01*
X3803Y4017D02*
X3842Y3978D01*
X3680Y4017D02*
X3803D01*
X5535Y5078D02*
Y5503D01*
Y5078D02*
X5600Y5012D01*
Y4742D02*
Y5012D01*
X5875Y4568D02*
Y4640D01*
X5960Y4560D02*
Y4728D01*
X6038Y4485D02*
Y4792D01*
X6234Y4616D02*
X6347D01*
X5794Y4486D02*
X5875Y4568D01*
X5821Y4421D02*
X5960Y4560D01*
X5844Y4291D02*
X6038Y4485D01*
X5970Y4860D02*
X6038Y4792D01*
X6176Y5209D02*
Y5385D01*
X5970Y5003D02*
X6176Y5209D01*
X5970Y4860D02*
Y5003D01*
X3558Y5050D02*
X4042D01*
X3303D02*
X3426Y4928D01*
X3303Y5050D02*
X3431Y5178D01*
X5717Y4291D02*
X5844D01*
X5717Y4421D02*
X5821D01*
X5717Y4486D02*
X5794D01*
X6685Y5639D02*
X6818Y5506D01*
Y4683D02*
Y5506D01*
X6621Y4486D02*
X6818Y4683D01*
X6347Y4486D02*
X6621D01*
X5669Y5381D02*
X5838Y5212D01*
Y4967D02*
Y5212D01*
X5669Y5381D02*
Y5385D01*
X5571Y4356D02*
X5717D01*
X5565Y4362D02*
X5571Y4356D01*
X6083Y4967D02*
X6255D01*
X6240Y4750D02*
X6255Y4765D01*
Y4967D01*
X6240Y4750D02*
X6344D01*
X6210D02*
X6240D01*
X4725Y4628D02*
Y4949D01*
X4519Y4421D02*
X4725Y4628D01*
X4384Y4421D02*
X4519D01*
X4830Y4492D02*
X4889Y4551D01*
X4830Y4315D02*
Y4492D01*
X4667Y4153D02*
X4830Y4315D01*
X4725Y4949D02*
X5160Y5385D01*
X4384Y4421D02*
X4384Y4421D01*
X4162Y4153D02*
X4667D01*
X4095Y4220D02*
X4162Y4153D01*
X3778Y4220D02*
X4095D01*
X3588Y4799D02*
X3863D01*
X4176Y4486D01*
X4384D01*
X3776Y4488D02*
X3778Y4485D01*
Y4220D02*
Y4485D01*
X4830Y4610D02*
X4889Y4551D01*
X5014D01*
X4830Y4610D02*
Y4862D01*
X4042Y5050D02*
X4183D01*
X4042Y4965D02*
Y5050D01*
Y4965D02*
X4261Y4746D01*
X4384D01*
X4399Y5266D02*
Y5385D01*
X4183Y5050D02*
X4399Y5266D01*
X3937Y5178D02*
X4144Y5385D01*
X3431Y5178D02*
X3937D01*
X4162Y4681D02*
X4384D01*
X3915Y4928D02*
X4162Y4681D01*
X3426Y4928D02*
X3915D01*
X7007Y5278D02*
X7145Y5415D01*
X7007Y4738D02*
Y5278D01*
X6691Y4421D02*
X7007Y4738D01*
X8509Y5144D02*
Y5344D01*
X8438Y5415D02*
X8509Y5344D01*
X7145Y5415D02*
X8438D01*
X4534Y4291D02*
X4597Y4355D01*
X4384Y4291D02*
X4534D01*
X7239Y4751D02*
Y5144D01*
X8520Y3230D02*
X8630Y3340D01*
X6231Y3230D02*
X8520D01*
X5969Y3492D02*
X6231Y3230D01*
X7360Y3338D02*
Y3660D01*
X8410Y4392D02*
X8509Y4294D01*
Y4144D02*
Y4294D01*
X6210Y4640D02*
Y4680D01*
Y4750D01*
Y4680D02*
X6211Y4681D01*
X6347D01*
X6344Y4750D02*
X6347Y4746D01*
X6210Y4640D02*
X6234Y4616D01*
X4428Y4616D02*
X4588D01*
X6347Y4421D02*
X6691D01*
X8490Y4510D02*
X8809Y4191D01*
X8080Y4510D02*
X8490D01*
X7874Y4304D02*
X8080Y4510D01*
X8809Y4191D02*
X8890D01*
X8382Y4792D02*
Y5144D01*
X7874Y4144D02*
Y4304D01*
X7331Y3931D02*
X7366Y3966D01*
Y4144D01*
X8630Y3340D02*
Y3750D01*
X8382Y3998D02*
X8630Y3750D01*
X8382Y3998D02*
Y4144D01*
X7110Y3590D02*
X7493Y3973D01*
X7110Y3410D02*
Y3590D01*
X7010Y3310D02*
X7110Y3410D01*
X6660Y3310D02*
X7010D01*
X6477Y3492D02*
X6660Y3310D01*
X7493Y3973D02*
Y4144D01*
X7360Y3660D02*
X7620Y3920D01*
Y4144D01*
X8128Y5144D02*
Y5312D01*
X8090Y5350D02*
X8128Y5312D01*
X7540Y5350D02*
X8090D01*
X7493Y5303D02*
X7540Y5350D01*
X7493Y5144D02*
Y5303D01*
X8250Y4900D02*
X8255Y4905D01*
Y5144D01*
X6347Y4356D02*
X6736D01*
X7112Y4732D01*
Y5144D01*
X5715Y3492D02*
Y3655D01*
X7366Y4904D02*
X7370Y4900D01*
X7366Y4904D02*
Y5144D01*
X7874Y4876D02*
Y5144D01*
X6985Y3492D02*
Y3615D01*
X7239Y3869D01*
Y4144D01*
X7493Y3492D02*
Y3643D01*
X7580Y3730D01*
X7830D01*
X8001Y3901D01*
Y4144D01*
Y3492D02*
Y3651D01*
X8128Y3778D01*
Y4144D01*
X8509Y3492D02*
Y3721D01*
X8255Y3975D02*
X8509Y3721D01*
X8255Y3975D02*
Y4144D01*
X5249Y4551D02*
X5717D01*
X5184Y4616D02*
X5249Y4551D01*
X5014Y4616D02*
X5184D01*
X5600Y4630D02*
Y4686D01*
Y4742D01*
Y4686D02*
X5605Y4681D01*
X5717D01*
X5614Y4616D02*
X5717D01*
X5600Y4630D02*
X5614Y4616D01*
X5600Y4742D02*
X5604Y4746D01*
X5717D01*
X5140Y4292D02*
Y4356D01*
Y4420D01*
X5140Y4356D02*
X5140Y4356D01*
X5014Y4356D02*
X5140D01*
X5014Y4421D02*
X5015Y4420D01*
X5140D01*
X5139Y4291D02*
X5140Y4292D01*
X5014Y4291D02*
X5139D01*
X6191Y4551D02*
X6347D01*
X6190Y4550D02*
X6191Y4551D01*
X6115Y4550D02*
X6190D01*
X6112Y4547D02*
X6115Y4550D01*
D12*
X3709Y3238D02*
X5838D01*
X5415Y5503D02*
X5535D01*
X6294D01*
X5633Y5349D02*
X5669Y5385D01*
X4144Y5639D02*
X4338Y5833D01*
X6753D01*
X7085Y5500D01*
X8620D01*
X3138Y4024D02*
X3295D01*
X3098Y4065D02*
X3138Y4024D01*
X3098Y4065D02*
Y5408D01*
X3329Y5639D01*
X4144D01*
X3578Y4215D02*
X3583Y4220D01*
X3295Y4215D02*
X3578D01*
X3673Y4024D02*
X3680Y4017D01*
X3295Y4024D02*
X3673D01*
X3583Y4220D02*
X3585Y4222D01*
Y4488D01*
X3588Y4490D01*
Y4799D01*
X4917Y5503D02*
X5415D01*
X4535D02*
X4917D01*
X4906Y5492D02*
X4917Y5503D01*
X4906Y5385D02*
Y5492D01*
X5415Y5503D02*
X5415Y5503D01*
X5415Y5503D02*
Y5639D01*
X6294Y5503D02*
X6431Y5639D01*
X4399D02*
X4535Y5503D01*
X8620Y5500D02*
X8763Y5357D01*
X5838Y3238D02*
X6012D01*
X5838D02*
Y3595D01*
X5983Y3740D01*
X6350D01*
X7493Y4883D01*
Y5144D01*
X6120Y3130D02*
X8762D01*
X6012Y3238D02*
X6120Y3130D01*
X9340Y3708D02*
Y4785D01*
X9236Y4890D02*
X9340Y4785D01*
X9144Y4890D02*
X9236D01*
X8763D02*
Y5357D01*
Y4567D02*
Y4594D01*
Y4600D02*
Y4890D01*
X7984Y4594D02*
X8763D01*
X7747Y4357D02*
X7984Y4594D01*
X7747Y4144D02*
Y4357D01*
X9081Y4508D02*
X9144Y4572D01*
Y4890D01*
X8763Y4567D02*
X8821Y4508D01*
X8890Y4450D02*
Y4508D01*
Y4450D02*
X9081Y4260D01*
Y4191D02*
Y4260D01*
X8821Y4508D02*
X8890D01*
X8762Y3130D02*
X9340Y3708D01*
D13*
X3000Y5952D02*
X9486D01*
X3000Y3000D02*
X9498D01*
Y2999D02*
Y5952D01*
D14*
X4144Y5385D02*
D03*
D15*
X5415D02*
D03*
X4399D02*
D03*
X5669D02*
D03*
X4653D02*
D03*
X5922D02*
D03*
X4906D02*
D03*
X6176D02*
D03*
X5160D02*
D03*
X6431D02*
D03*
X6685D02*
D03*
Y5639D02*
D03*
X6431D02*
D03*
X5160D02*
D03*
X6176D02*
D03*
X4906D02*
D03*
X5922D02*
D03*
X4653D02*
D03*
X5669D02*
D03*
X4399D02*
D03*
X5415D02*
D03*
X4144D02*
D03*
X6509Y4967D02*
D03*
D16*
X6255D02*
D03*
D17*
X8763Y3492D02*
D03*
X8509D02*
D03*
X8255D02*
D03*
X8001D02*
D03*
X7747D02*
D03*
X7493D02*
D03*
X7239D02*
D03*
X6985D02*
D03*
X6731D02*
D03*
X5969D02*
D03*
X5715D02*
D03*
X5207D02*
D03*
X5461D02*
D03*
X4699D02*
D03*
X4953D02*
D03*
X5969D02*
D03*
X6223D02*
D03*
X6477D02*
D03*
D18*
X4445D02*
D03*
D19*
X3333Y4799D02*
D03*
Y5308D02*
D03*
Y5053D02*
D03*
X3588Y4799D02*
D03*
Y5308D02*
D03*
Y5053D02*
D03*
D20*
X7753Y4862D02*
D03*
X3720Y3233D02*
D03*
X5875Y4640D02*
D03*
X5960Y4728D02*
D03*
X5565Y4362D02*
D03*
X4830Y4870D02*
D03*
X4597Y4355D02*
D03*
X4600Y4635D02*
D03*
X7357Y3338D02*
D03*
X7331Y3931D02*
D03*
X8251Y4891D02*
D03*
X7370Y4900D02*
D03*
X7874Y4876D02*
D03*
X8410Y4392D02*
D03*
X6112Y4547D02*
D03*
D21*
X5838Y4967D02*
D03*
D22*
X6083D02*
D03*
D23*
X3776Y4488D02*
D03*
X3585D02*
D03*
X8890Y4191D02*
D03*
X9081D02*
D03*
Y4508D02*
D03*
X8890D02*
D03*
D24*
X3680Y4017D02*
D03*
X3583Y4220D02*
D03*
X3778D02*
D03*
D25*
X8763Y4890D02*
D03*
D26*
X9144D02*
D03*
D27*
X7112Y5144D02*
D03*
D28*
X7239D02*
D03*
X7366D02*
D03*
X7493D02*
D03*
X7620D02*
D03*
X7747D02*
D03*
X7874D02*
D03*
X8001D02*
D03*
X8128D02*
D03*
X8255D02*
D03*
X8382D02*
D03*
X8509D02*
D03*
X7112Y4144D02*
D03*
X7239D02*
D03*
X7366D02*
D03*
X7493D02*
D03*
X7620D02*
D03*
X7747D02*
D03*
X7874D02*
D03*
X8001D02*
D03*
X8128D02*
D03*
X8255D02*
D03*
X8382D02*
D03*
X8509D02*
D03*
D29*
X6347Y4746D02*
D03*
Y4681D02*
D03*
Y4616D02*
D03*
Y4551D02*
D03*
Y4486D02*
D03*
Y4421D02*
D03*
Y4356D02*
D03*
Y4291D02*
D03*
X5717Y4746D02*
D03*
Y4681D02*
D03*
Y4616D02*
D03*
Y4551D02*
D03*
Y4486D02*
D03*
Y4421D02*
D03*
Y4356D02*
D03*
Y4291D02*
D03*
X5014Y4746D02*
D03*
Y4681D02*
D03*
Y4616D02*
D03*
Y4551D02*
D03*
Y4486D02*
D03*
Y4421D02*
D03*
Y4356D02*
D03*
Y4291D02*
D03*
X4384Y4746D02*
D03*
Y4681D02*
D03*
Y4616D02*
D03*
Y4551D02*
D03*
Y4486D02*
D03*
Y4421D02*
D03*
Y4356D02*
D03*
Y4291D02*
D03*
M02*
