G04 Layer_Color=8388736*
%FSLAX42Y42*%
%MOMM*%
G71*
G01*
G75*
%ADD13C,0.25*%
%ADD32R,1.60X1.22*%
G04:AMPARAMS|DCode=33|XSize=1.7mm|YSize=1.7mm|CornerRadius=0.33mm|HoleSize=0mm|Usage=FLASHONLY|Rotation=0.000|XOffset=0mm|YOffset=0mm|HoleType=Round|Shape=RoundedRectangle|*
%AMROUNDEDRECTD33*
21,1,1.70,1.05,0,0,0.0*
21,1,1.05,1.70,0,0,0.0*
1,1,0.65,0.53,-0.53*
1,1,0.65,-0.53,-0.53*
1,1,0.65,-0.53,0.53*
1,1,0.65,0.53,0.53*
%
%ADD33ROUNDEDRECTD33*%
%ADD34C,1.70*%
%ADD35R,1.70X1.70*%
%ADD36C,1.55*%
%ADD37R,1.55X1.55*%
%ADD38C,1.73*%
%ADD39C,0.91*%
D13*
X3000Y5952D02*
X9486D01*
X3000Y3000D02*
X9498D01*
Y2999D02*
Y5952D01*
D32*
X5682Y4870D02*
D03*
Y5060D02*
D03*
X5420D02*
D03*
Y4870D02*
D03*
X5165Y5060D02*
D03*
Y4870D02*
D03*
X4392Y4869D02*
D03*
Y5060D02*
D03*
X4142Y4869D02*
D03*
Y5060D02*
D03*
D33*
X4144Y5385D02*
D03*
D34*
X5415D02*
D03*
X4399D02*
D03*
X5669D02*
D03*
X4653D02*
D03*
X5922D02*
D03*
X4906D02*
D03*
X6176D02*
D03*
X5160D02*
D03*
X6431D02*
D03*
X6685D02*
D03*
Y5639D02*
D03*
X6431D02*
D03*
X5160D02*
D03*
X6176D02*
D03*
X4906D02*
D03*
X5922D02*
D03*
X4653D02*
D03*
X5669D02*
D03*
X4399D02*
D03*
X5415D02*
D03*
X4144D02*
D03*
X6509Y4967D02*
D03*
D35*
X6255D02*
D03*
D36*
X8763Y3492D02*
D03*
X8509D02*
D03*
X8255D02*
D03*
X8001D02*
D03*
X7747D02*
D03*
X7493D02*
D03*
X7239D02*
D03*
X6985D02*
D03*
X6731D02*
D03*
X5969D02*
D03*
X5715D02*
D03*
X5207D02*
D03*
X5461D02*
D03*
X4699D02*
D03*
X4953D02*
D03*
X5969D02*
D03*
X6223D02*
D03*
X6477D02*
D03*
D37*
X4445D02*
D03*
D38*
X3333Y4799D02*
D03*
Y5308D02*
D03*
Y5053D02*
D03*
X3588Y4799D02*
D03*
Y5308D02*
D03*
Y5053D02*
D03*
D39*
X7753Y4862D02*
D03*
X3720Y3233D02*
D03*
X5875Y4640D02*
D03*
X5960Y4728D02*
D03*
X5565Y4362D02*
D03*
X4830Y4870D02*
D03*
X4597Y4355D02*
D03*
X4600Y4635D02*
D03*
X7357Y3338D02*
D03*
X7331Y3931D02*
D03*
X8251Y4891D02*
D03*
X7370Y4900D02*
D03*
X7874Y4876D02*
D03*
X8410Y4392D02*
D03*
X6112Y4547D02*
D03*
M02*
