G04 Layer_Color=16711935*
%FSLAX42Y42*%
%MOMM*%
G71*
G01*
G75*
%ADD13C,0.25*%
%ADD32R,1.60X1.22*%
G04:AMPARAMS|DCode=33|XSize=1.7mm|YSize=1.7mm|CornerRadius=0.33mm|HoleSize=0mm|Usage=FLASHONLY|Rotation=0.000|XOffset=0mm|YOffset=0mm|HoleType=Round|Shape=RoundedRectangle|*
%AMROUNDEDRECTD33*
21,1,1.70,1.05,0,0,0.0*
21,1,1.05,1.70,0,0,0.0*
1,1,0.65,0.53,-0.53*
1,1,0.65,-0.53,-0.53*
1,1,0.65,-0.53,0.53*
1,1,0.65,0.53,0.53*
%
%ADD33ROUNDEDRECTD33*%
%ADD34C,1.70*%
%ADD35R,1.70X1.70*%
%ADD36C,1.55*%
%ADD37R,1.55X1.55*%
%ADD38C,1.73*%
%ADD39C,0.91*%
%ADD40R,0.80X0.80*%
G04:AMPARAMS|DCode=41|XSize=0.8mm|YSize=0.8mm|CornerRadius=0.25mm|HoleSize=0mm|Usage=FLASHONLY|Rotation=180.000|XOffset=0mm|YOffset=0mm|HoleType=Round|Shape=RoundedRectangle|*
%AMROUNDEDRECTD41*
21,1,0.80,0.30,0,0,180.0*
21,1,0.30,0.80,0,0,180.0*
1,1,0.50,-0.15,0.15*
1,1,0.50,0.15,0.15*
1,1,0.50,0.15,-0.15*
1,1,0.50,-0.15,-0.15*
%
%ADD41ROUNDEDRECTD41*%
%ADD42R,1.22X1.60*%
%ADD43R,0.90X1.00*%
%ADD44O,1.73X2.36*%
%ADD45R,1.60X2.36*%
%ADD46R,0.80X2.20*%
%ADD47O,0.80X2.20*%
%ADD48R,1.30X0.60*%
D13*
X3000Y5952D02*
X9486D01*
X3000Y3000D02*
X9498D01*
Y2999D02*
Y5952D01*
D32*
X3295Y4024D02*
D03*
Y4215D02*
D03*
D33*
X4144Y5385D02*
D03*
D34*
X5415D02*
D03*
X4399D02*
D03*
X5669D02*
D03*
X4653D02*
D03*
X5922D02*
D03*
X4906D02*
D03*
X6176D02*
D03*
X5160D02*
D03*
X6431D02*
D03*
X6685D02*
D03*
Y5639D02*
D03*
X6431D02*
D03*
X5160D02*
D03*
X6176D02*
D03*
X4906D02*
D03*
X5922D02*
D03*
X4653D02*
D03*
X5669D02*
D03*
X4399D02*
D03*
X5415D02*
D03*
X4144D02*
D03*
X6509Y4967D02*
D03*
D35*
X6255D02*
D03*
D36*
X8763Y3492D02*
D03*
X8509D02*
D03*
X8255D02*
D03*
X8001D02*
D03*
X7747D02*
D03*
X7493D02*
D03*
X7239D02*
D03*
X6985D02*
D03*
X6731D02*
D03*
X5969D02*
D03*
X5715D02*
D03*
X5207D02*
D03*
X5461D02*
D03*
X4699D02*
D03*
X4953D02*
D03*
X5969D02*
D03*
X6223D02*
D03*
X6477D02*
D03*
D37*
X4445D02*
D03*
D38*
X3333Y4799D02*
D03*
Y5308D02*
D03*
Y5053D02*
D03*
X3588Y4799D02*
D03*
Y5308D02*
D03*
Y5053D02*
D03*
D39*
X7753Y4862D02*
D03*
X3720Y3233D02*
D03*
X5875Y4640D02*
D03*
X5960Y4728D02*
D03*
X5565Y4362D02*
D03*
X4830Y4870D02*
D03*
X4597Y4355D02*
D03*
X4600Y4635D02*
D03*
X7357Y3338D02*
D03*
X7331Y3931D02*
D03*
X8251Y4891D02*
D03*
X7370Y4900D02*
D03*
X7874Y4876D02*
D03*
X8410Y4392D02*
D03*
X6112Y4547D02*
D03*
D40*
X5838Y4967D02*
D03*
D41*
X6083D02*
D03*
D42*
X3776Y4488D02*
D03*
X3585D02*
D03*
X8890Y4191D02*
D03*
X9081D02*
D03*
Y4508D02*
D03*
X8890D02*
D03*
D43*
X3680Y4017D02*
D03*
X3583Y4220D02*
D03*
X3778D02*
D03*
D44*
X8763Y4890D02*
D03*
D45*
X9144D02*
D03*
D46*
X7112Y5144D02*
D03*
D47*
X7239D02*
D03*
X7366D02*
D03*
X7493D02*
D03*
X7620D02*
D03*
X7747D02*
D03*
X7874D02*
D03*
X8001D02*
D03*
X8128D02*
D03*
X8255D02*
D03*
X8382D02*
D03*
X8509D02*
D03*
X7112Y4144D02*
D03*
X7239D02*
D03*
X7366D02*
D03*
X7493D02*
D03*
X7620D02*
D03*
X7747D02*
D03*
X7874D02*
D03*
X8001D02*
D03*
X8128D02*
D03*
X8255D02*
D03*
X8382D02*
D03*
X8509D02*
D03*
D48*
X6347Y4746D02*
D03*
Y4681D02*
D03*
Y4616D02*
D03*
Y4551D02*
D03*
Y4486D02*
D03*
Y4421D02*
D03*
Y4356D02*
D03*
Y4291D02*
D03*
X5717Y4746D02*
D03*
Y4681D02*
D03*
Y4616D02*
D03*
Y4551D02*
D03*
Y4486D02*
D03*
Y4421D02*
D03*
Y4356D02*
D03*
Y4291D02*
D03*
X5014Y4746D02*
D03*
Y4681D02*
D03*
Y4616D02*
D03*
Y4551D02*
D03*
Y4486D02*
D03*
Y4421D02*
D03*
Y4356D02*
D03*
Y4291D02*
D03*
X4384Y4746D02*
D03*
Y4681D02*
D03*
Y4616D02*
D03*
Y4551D02*
D03*
Y4486D02*
D03*
Y4421D02*
D03*
Y4356D02*
D03*
Y4291D02*
D03*
M02*
